<svg version="1.1" id="Capa_1" xmlns="http://www.w3.org/2000/svg" x="0" y="0" viewBox="0 0 1080 1080" style="enable-background:new 0 0 1080 1080" xml:space="preserve"><style>.st0{fill:#d0d2d1}.st1{fill:#5e5760}</style><path class="st0" d="M181.2 672.5c-63.1.8-102.8 5.3-114.1 6.8-.7.1-1.3.2-1.8.2l.6 2.7c1.3 6.1 2.7 12.1 4 17.9l1.5 6.3c2.4 10 5 19.7 7.6 29 42.6 100.2 117 183.7 210.4 237.9-29.8-43-54.3-93.6-73.4-151.3-14.9-45.5-26.5-95.5-34.8-149.5zM896 669.5h3.2c57 .8 95 4.5 110.1 6.3l-5.9-3.5c-3.4-.5-37.2-5.1-103.6-6.9-1.1 0-2.2 0-3.2-.1-9.4-.2-19.4-.4-30.1-.5l12.4 4.5c5.9.1 11.6.1 17.1.2zM60.7 651.3c.4 0 .9 0 1.4-.1 10.5-.5 51.4-2.3 115.5-4.3-5.1-39.1-8.5-80.2-10.1-123.2-5.8-153.5 12.5-289.5 20.4-339.2C119 252.7 69.7 340.8 49.5 439.4c-6.3 54.8-7.1 125.8 9.9 206.1.4 1.9.8 3.8 1.3 5.8zM848.3 752.1l15.7 6.6 13-86.8-18-6.6zM541.5 754.5H233.6l-11.2 4.8h635.3l-11.4-4.8zM538.5 641.5h3c23.4 0 46.1.1 68.3.2V44.2C587 41 563.7 39.4 540 39.4s-47 1.7-69.8 4.9v597.5c22.2-.2 44.9-.3 68.3-.3z"/><path class="st1" d="M909.4 523.6c6-157.6-13.6-296.8-21-342.7-12.8-12.4-26.2-24.1-40.2-35.1-5-3.9-10.1-7.8-15.3-11.5-38-27.5-80-49.8-124.9-65.9-6-2.1-12-4.2-18-6.1-25-7.9-50.8-13.8-77.3-17.7v597.1c116.7.7 215.4 2.9 286.4 5.1 5.7-42.7 8.9-84.4 10.3-123.2z"/><path class="st0" d="M181.2 649.9c-1.1 0-2.1.1-3.2.1-62 1.9-102.4 3.7-114.6 4.2l11.2 9.3c4.4-.6 30.5-3.7 104.4-6.6 1.1 0 2.1-.1 3.2-.1 60-2.3 150.6-4.4 285-5h3c21.6-.1 44.4-.1 68.3-.1h3c23.9 0 46.7 0 68.3.1h3c134.4.6 225 2.7 285 5 1.1 0 2.2.1 3.2.1 73.8 2.9 100 6 104.4 6.6l11.2-9.3c-12.2-.6-52.6-2.4-114.6-4.2-1 0-2.1-.1-3.2-.1-71-2.1-169.5-4.4-286-5.1h-3c-22.1-.1-44.9-.2-68.3-.2h-3c-23.4 0-46.1.1-68.3.2h-3c-116.5.7-215 2.9-286 5.1z"/><path class="st1" d="M170.6 523.7c1.5 38.8 4.6 80.4 10.2 123.2 71-2.1 169.7-4.4 286.4-5.1V44.7c-26.5 3.9-52.3 9.8-77.3 17.7-6.1 1.9-12 3.9-18 6.1-44.9 16-86.9 38.3-124.9 65.8-5.2 3.7-10.3 7.6-15.3 11.5-14 11-27.4 22.7-40.2 35.1-7.4 46-26.9 185.1-20.9 342.8z"/><path class="st0" d="M892.1 184.5c7.8 49.8 26.2 185.8 20.4 339.2-1.6 43-5 84.1-10.1 123.2 64.1 2 105 3.8 115.5 4.3.5 0 1 0 1.4.1.4-2 .8-3.9 1.3-5.9 17-80.2 16.2-151.3 9.9-206.1-20.2-98.5-69.5-186.6-138.4-254.8zM203 671.9l13.1 86.8 15.6-6.6-10.7-86.8zM180.2 665.5c-66.5 1.8-100.2 6.4-103.6 6.9l-5.9 3.5c15.1-1.8 53.1-5.5 110.1-6.3h3.2c5.5-.1 11.2-.1 17.1-.1l12.4-4.5c-10.7.1-20.7.3-30.1.5-1.1-.1-2.2-.1-3.2 0zM1014.6 679.5c-.5-.1-1.1-.1-1.8-.2-11.3-1.5-51.1-5.9-114.1-6.8-8.2 54-19.9 104-34.9 149.5-19.1 57.8-43.6 108.3-73.4 151.3 93.4-54.2 167.8-137.7 210.4-237.9 2.6-9.3 5.2-19 7.6-29l1.5-6.3c1.4-5.9 2.7-11.8 4-17.9.3-.9.5-1.8.7-2.7z"/><path class="st1" d="m880 672.4-13.5 90h-653l-13.5-90c-5.3 0-10.5 0-15.5.1C201 778.7 233.8 889.3 296 977c72.2 40.5 155.5 63.7 244 63.7s171.8-23.1 244-63.7c62.2-87.7 95-198.2 111.5-304.5-5-.1-10.2-.1-15.5-.1z"/><path d="M612.8 654.9h-3c-22.1-.1-45.3-.1-69.8-.1s-47.7 0-69.8.1h-3c-106.7.5-185.8 1.9-243.8 3.6l.3 3.2 11.1 89.8h610.6l11.1-89.8.4-3.2c-58.2-1.7-137.3-3.2-244.1-3.6z" style="fill:#575756"/><path class="st0" d="M223.3 658.5c-.7 0-1.4 0-2.1.1-14.1.4-26.9.9-38.6 1.3-1.1 0-2.1.1-3.2.1-81 3.2-104.6 6.6-105 6.7l-.7.1-14.8-12.3-.8-.7-.1-.5c0-.2-.1-.4-.1-.6-.4-1.7-.8-3.5-1.1-5.2-.3-1.3-.5-2.5-.8-3.8a642.1 642.1 0 0 1-12.7-166.5c-2.6 20.6-3.9 41.5-3.9 62.8 0 60.2 10.7 117.9 30.2 171.4-.4-1.6-.8-3.3-1.2-5-2.2-8.9-4.2-18-6.2-27.4 0-.2-.1-.3-.1-.5l-.2-1.1 1.2-.7 12.7-7.4c.4-.1 34.1-5 103.9-6.9 1.1 0 2.1 0 3.2-.1 11.9-.3 24.9-.5 38.8-.6H223.5l-.2-3.2zM1017.8 679.1c-2 9.4-4.1 18.5-6.2 27.4-.4 1.7-.8 3.3-1.2 5 19.6-53.5 30.2-111.2 30.2-171.4 0-21.3-1.3-42.2-3.9-62.8 2.6 47.8.2 104.4-12.6 166.4-.3 1.3-.5 2.5-.8 3.8-.4 1.7-.7 3.4-1.1 5.2 0 .2-.1.4-.1.6l-.1.5-.8.7-14.8 12.3-.7-.1c-.4-.1-24-3.5-105-6.7-1.1 0-2.1-.1-3.2-.1-11.6-.4-24.4-.9-38.4-1.3-.7 0-1.5 0-2.2-.1l-.4 3.2h1.9c13.9.1 26.8.3 38.7.6 1.1 0 2.2 0 3.2.1 69.8 1.9 103.5 6.9 104 6.9l.5.2 12.2 7.2 1.2.7-.2 1.1c-.1.2-.1.4-.2.6z"/><path d="M1033.4 438.8c-2.2-10.6-4.7-21-7.5-31.4-24-87.8-71.2-166.1-134.6-227.9-1.2-1.2-2.4-2.4-3.7-3.6-8.2-7.9-16.8-15.5-25.5-22.8-4-3.3-8.1-6.6-12.2-9.9-46.9-36.7-100.5-65.3-158.6-83.6-5-1.6-10-3.1-15-4.5-20.7-5.8-41.8-10.3-63.5-13.5-1-.2-2-.3-3-.4-22.8-3.2-46.1-4.9-69.8-4.9s-47 1.7-69.8 4.9c-1 .1-2 .3-3 .4-21.6 3.2-42.8 7.7-63.5 13.5-5 1.4-10 2.9-15 4.5-58.1 18.3-111.7 47-158.7 83.7-4.1 3.2-8.2 6.5-12.2 9.9-8.8 7.3-17.3 14.9-25.5 22.8-1.2 1.2-2.4 2.4-3.7 3.6-63.3 61.7-110.5 140-134.5 227.8-2.8 10.3-5.4 20.8-7.5 31.4-6.7 32.7-10.2 66.6-10.2 101.2 0 69.7 14.2 136.1 39.9 196.5 2.9 6.8 6 13.6 9.2 20.2 44.9 93.8 118 171.6 208.2 222.4 2.1 1.2 4.3 2.4 6.4 3.6 71.4 38.8 153.1 60.9 239.9 60.9s168.6-22.1 239.9-60.9c2.2-1.2 4.3-2.4 6.4-3.6 90.2-50.8 163.3-128.6 208.2-222.3 3.2-6.7 6.3-13.4 9.2-20.3 25.7-60.4 39.9-126.8 39.9-196.5.1-34.7-3.4-68.5-10.2-101.2zm-2.9.5c6.3 54.8 7.1 125.9-9.9 206.1-.4 2-.8 3.9-1.3 5.9-.4 0-.9 0-1.4-.1-10.5-.5-51.4-2.3-115.5-4.3 5.1-39.1 8.5-80.2 10.1-123.2 5.8-153.5-12.5-289.5-20.4-339.2 68.9 68.2 118.2 156.3 138.4 254.8zM612.8 44.7c26.5 3.9 52.3 9.8 77.3 17.7 6 1.9 12 3.9 18 6.1 44.9 16 86.9 38.3 124.9 65.8 5.2 3.7 10.3 7.6 15.3 11.5 14 11 27.4 22.7 40.2 35.1 7.4 45.9 26.9 185.1 21 342.7-1.5 38.8-4.6 80.5-10.2 123.2-71-2.1-169.7-4.4-286.4-5.1l-.1-597zm-142.6-.5c22.8-3.2 46.1-4.9 69.8-4.9s47 1.7 69.8 4.9v597.5c-22.1-.1-44.9-.2-68.3-.2h-3c-23.4 0-46.1.1-68.3.2V44.2zm0 600.6c22.1-.1 44.9-.2 68.3-.2h3c23.4 0 46.1.1 68.3.2h3c116.5.7 215 2.9 286 5.1 1.1 0 2.1.1 3.2.1 62 1.9 102.4 3.7 114.6 4.2l-11.2 9.3c-4.4-.6-30.5-3.7-104.4-6.6-1 0-2.1-.1-3.2-.1-60-2.3-150.6-4.4-285-5h-3c-21.6-.1-44.3-.1-68.3-.1h-3c-23.9 0-46.6 0-68.3.1h-3c-134.4.6-225 2.7-285 5-1.1 0-2.1.1-3.2.1-73.8 2.9-100 6-104.4 6.6l-11.2-9.3c12.2-.6 52.6-2.4 114.6-4.2 1.1 0 2.1-.1 3.2-.1 71-2.1 169.4-4.4 286-5.1h3zM877 671.9l-13 86.8-15.7-6.6 10.7-86.7 18 6.5zm-10.5-7c10.7.1 20.7.3 30.1.5 1.1 0 2.2 0 3.2.1 66.5 1.8 100.2 6.4 103.6 6.9l5.9 3.5c-15.1-1.8-53.1-5.5-110.1-6.3H896c-5.5-.1-11.2-.1-17-.1l-12.5-4.6zm-645.5.4 10.7 86.7-15.6 6.6-13-86.8 17.9-6.5zm-19.9 4.1c-5.9 0-11.5 0-17.1.1h-3.2c-57 .8-95 4.5-110.1 6.3l5.9-3.5c3.4-.5 37.2-5.1 103.6-6.9 1.1 0 2.1 0 3.2-.1 9.4-.2 19.4-.4 30.1-.5l-12.4 4.6zm655.1-5.9-10.9 88H234.7l-11-88.8-.3-4.2c58-1.7 137.1-3.2 243.7-3.6h3c22.1-.1 45.3-.1 69.8-.1s47.7 0 69.8.1h3c106.6.5 185.6 1.9 243.6 3.6l-.1 5zm-622.6 91h612.6l11.3 4.8H222.4l11.2-4.8zm-42.1-573.6c12.8-12.4 26.2-24.1 40.2-35.1 5-3.9 10.1-7.8 15.3-11.5 38-27.5 80-49.8 124.9-65.9 6-2.1 12-4.2 18-6.1 25-7.9 50.8-13.8 77.3-17.7v597.1c-116.7.7-215.4 2.9-286.4 5.1-5.6-42.7-8.8-84.4-10.2-123.2-6-157.6 13.5-296.7 20.9-342.7zm-142 258.5c20.2-98.5 69.4-186.6 138.4-254.9-7.8 49.8-26.2 185.8-20.4 339.2 1.6 43 5 84.1 10.1 123.2-64.1 2-105 3.8-115.5 4.3-.5 0-1 0-1.4.1-.4-2-.8-3.9-1.3-5.9-17-80.2-16.2-151.3-9.9-206zM39.4 540c0-21.2 1.3-42.2 3.9-62.8-2.6 47.8-.3 104.4 12.6 166.5.3 1.3.5 2.5.8 3.8.4 1.7.7 3.4 1.1 5.2 0 .2.1.4.1.6l.1.5.8.7 14.8 12.3.7-.1c.4-.1 24-3.5 105-6.7 1.1 0 2.1-.1 3.2-.1 11.4-.4 24-.9 37.8-1.3l.2 3.2c-13.5.1-26.1.3-37.7.6-1.1 0-2.2 0-3.2.1-69.8 1.9-103.6 6.9-103.9 6.9L63 676.8l-1.2.7.2 1.1c0 .2.1.3.1.5 2 9.4 4.1 18.5 6.2 27.4.4 1.7.8 3.3 1.2 5C50 657.9 39.4 600.2 39.4 540zm39.7 195.5c-2.6-9.3-5.2-18.9-7.6-29l-1.5-6.3c-1.4-5.9-2.7-11.8-4-17.9l-.6-2.7c.5-.1 1.1-.1 1.8-.2 11.3-1.5 51.1-5.9 114.1-6.8 8.2 54 19.9 104 34.9 149.5 19.1 57.8 43.6 108.3 73.4 151.3-93.5-54.2-167.8-137.8-210.5-237.9zM784 977c-72.2 40.5-155.5 63.7-244 63.7s-171.8-23.1-244-63.7c-62.1-87.7-95-198.2-111.4-304.5 5 0 10.2-.1 15.5-.1l13.5 90h653l13.5-90c5.3 0 10.5 0 15.5.1C879 778.7 846.2 889.3 784 977zm224.5-270.5c-2.4 10-5 19.7-7.6 29-42.6 100.2-117 183.7-210.4 237.9 29.8-43 54.3-93.6 73.4-151.3 15-45.5 26.7-95.5 34.9-149.5 63 .8 102.8 5.3 114.1 6.8.7.1 1.3.2 1.8.2l-.6 2.7c-1.3 6.1-2.7 12.1-4 17.9-.6 2.1-1.1 4.2-1.6 6.3zm3.1 0c2.2-8.9 4.2-18 6.2-27.4 0-.2.1-.3.1-.5l.2-1.1-1.2-.7-12.2-7.2-.5-.2c-.4-.1-34.1-5-104-6.9-1 0-2.2 0-3.2-.1-11.6-.3-24.2-.5-37.7-.6l.2-3.2c13.8.4 26.4.8 37.9 1.3 1.1 0 2.1.1 3.2.1 81 3.2 104.6 6.6 105 6.7l.7.1 14.8-12.3.8-.7.1-.5c0-.2.1-.4.1-.6.4-1.7.8-3.5 1.1-5.2.3-1.3.5-2.5.8-3.8 12.9-62.1 15.2-118.7 12.6-166.5 2.6 20.6 3.9 41.5 3.9 62.8 0 60.2-10.7 117.9-30.2 171.4.5-1.6.9-3.3 1.3-4.9z"/><linearGradient id="SVGID_1_" gradientUnits="userSpaceOnUse" x1="165.503" y1="-136.855" x2="194.944" y2="824.873" gradientTransform="matrix(1 0 0 -1 0 1080)"><stop offset="0" style="stop-color:#000"/><stop offset="1" style="stop-color:#000;stop-opacity:0"/></linearGradient><path d="M181.2 672.5c-63.1.8-102.8 5.3-114.1 6.8-.7.1-1.3.2-1.8.2l.6 2.7c1.3 6.1 2.7 12.1 4 17.9l1.5 6.3c2.4 10 5 19.7 7.6 29 42.6 100.2 117 183.7 210.4 237.9-29.8-43-54.3-93.6-73.4-151.3-14.9-45.5-26.5-95.5-34.8-149.5z" style="fill:url(#SVGID_1_)"/><linearGradient id="SVGID_00000167395917520639546260000011198479792166228107_" gradientUnits="userSpaceOnUse" x1="866.55" y1="409.68" x2="1009.33" y2="409.68" gradientTransform="matrix(1 0 0 -1 0 1080)"><stop offset="0" style="stop-color:#000"/><stop offset="1" style="stop-color:#000;stop-opacity:0"/></linearGradient><path style="fill:url(#SVGID_00000167395917520639546260000011198479792166228107_)" d="M896 669.5h3.2c57 .8 95 4.5 110.1 6.3l-5.9-3.5c-3.4-.5-37.2-5.1-103.6-6.9-1.1 0-2.2 0-3.2-.1-9.4-.2-19.4-.4-30.1-.5l12.4 4.5c5.9.1 11.6.1 17.1.2z"/><linearGradient id="SVGID_00000046316193055939386040000008129087155971538874_" gradientUnits="userSpaceOnUse" x1="91.904" y1="-134.601" x2="121.344" y2="827.126" gradientTransform="matrix(1 0 0 -1 0 1080)"><stop offset="0" style="stop-color:#000"/><stop offset="1" style="stop-color:#000;stop-opacity:0"/></linearGradient><path style="fill:url(#SVGID_00000046316193055939386040000008129087155971538874_)" d="M60.7 651.3c.4 0 .9 0 1.4-.1 10.5-.5 51.4-2.3 115.5-4.3-5.1-39.1-8.5-80.2-10.1-123.2-5.8-153.5 12.5-289.5 20.4-339.2C119 252.7 69.7 340.8 49.5 439.4c-6.3 54.8-7.1 125.8 9.9 206.1.4 1.9.8 3.8 1.3 5.8z"/><linearGradient id="SVGID_00000005958708013349436520000006446950716142007702_" gradientUnits="userSpaceOnUse" x1="848.3" y1="367.99" x2="876.97" y2="367.99" gradientTransform="matrix(1 0 0 -1 0 1080)"><stop offset="0" style="stop-color:#000"/><stop offset="1" style="stop-color:#000;stop-opacity:0"/></linearGradient><path style="fill:url(#SVGID_00000005958708013349436520000006446950716142007702_)" d="m848.3 752.1 15.7 6.6 13-86.8-18-6.6z"/><linearGradient id="SVGID_00000119083866892141379350000007205866592767984318_" gradientUnits="userSpaceOnUse" x1="222.35" y1="323.07" x2="857.65" y2="323.07" gradientTransform="matrix(1 0 0 -1 0 1080)"><stop offset="0" style="stop-color:#000"/><stop offset="1" style="stop-color:#000;stop-opacity:0"/></linearGradient><path style="fill:url(#SVGID_00000119083866892141379350000007205866592767984318_)" d="M541.5 754.5H233.6l-11.2 4.8h635.3l-11.4-4.8z"/><linearGradient id="SVGID_00000023272095871216397690000017952789691834773413_" gradientUnits="userSpaceOnUse" x1="512.934" y1="-147.49" x2="542.375" y2="814.238" gradientTransform="matrix(1 0 0 -1 0 1080)"><stop offset="0" style="stop-color:#000"/><stop offset="1" style="stop-color:#000;stop-opacity:0"/></linearGradient><path style="fill:url(#SVGID_00000023272095871216397690000017952789691834773413_)" d="M538.5 641.5h3c23.4 0 46.1.1 68.3.2V44.2C587 41 563.7 39.4 540 39.4s-47 1.7-69.8 4.9v597.5c22.2-.2 44.9-.3 68.3-.3z"/><linearGradient id="SVGID_00000163767328945338786890000011812844379519638207_" gradientUnits="userSpaceOnUse" x1="732.067" y1="-154.198" x2="761.507" y2="807.529" gradientTransform="matrix(1 0 0 -1 0 1080)"><stop offset="0" style="stop-color:#000"/><stop offset="1" style="stop-color:#000;stop-opacity:0"/></linearGradient><path style="fill:url(#SVGID_00000163767328945338786890000011812844379519638207_)" d="M909.4 523.6c6-157.6-13.6-296.8-21-342.7-12.8-12.4-26.2-24.1-40.2-35.1-5-3.9-10.1-7.8-15.3-11.5-38-27.5-80-49.8-124.9-65.9-6-2.1-12-4.2-18-6.1-25-7.9-50.8-13.8-77.3-17.7v597.1c116.7.7 215.4 2.9 286.4 5.1 5.7-42.7 8.9-84.4 10.3-123.2z"/><linearGradient id="SVGID_00000068645951810728668260000010593854185903297180_" gradientUnits="userSpaceOnUse" x1="540.005" y1="423.416" x2="540.005" y2="466.952" gradientTransform="matrix(1 0 0 -1 0 1080)"><stop offset="0" style="stop-color:#000"/><stop offset="1" style="stop-color:#000;stop-opacity:0"/></linearGradient><path style="fill:url(#SVGID_00000068645951810728668260000010593854185903297180_)" d="M181.2 649.9c-1.1 0-2.1.1-3.2.1-62 1.9-102.4 3.7-114.6 4.2l11.2 9.3c4.4-.6 30.5-3.7 104.4-6.6 1.1 0 2.1-.1 3.2-.1 60-2.3 150.6-4.4 285-5h3c21.6-.1 44.4-.1 68.3-.1h3c23.9 0 46.7 0 68.3.1h3c134.4.6 225 2.7 285 5 1.1 0 2.2.1 3.2.1 73.8 2.9 100 6 104.4 6.6l11.2-9.3c-12.2-.6-52.6-2.4-114.6-4.2-1 0-2.1-.1-3.2-.1-71-2.1-169.5-4.4-286-5.1h-3c-22.1-.1-44.9-.2-68.3-.2h-3c-23.4 0-46.1.1-68.3.2h-3c-116.5.7-215 2.9-286 5.1z"/><linearGradient id="SVGID_00000097487661395450835870000004265177812563169926_" gradientUnits="userSpaceOnUse" x1="297.453" y1="-140.894" x2="326.894" y2="820.834" gradientTransform="matrix(1 0 0 -1 0 1080)"><stop offset="0" style="stop-color:#000"/><stop offset="1" style="stop-color:#000;stop-opacity:0"/></linearGradient><path style="fill:url(#SVGID_00000097487661395450835870000004265177812563169926_)" d="M170.6 523.7c1.5 38.8 4.6 80.4 10.2 123.2 71-2.1 169.7-4.4 286.4-5.1V44.7c-26.5 3.9-52.3 9.8-77.3 17.7-6.1 1.9-12 3.9-18 6.1-44.9 16-86.9 38.3-124.9 65.8-5.2 3.7-10.3 7.6-15.3 11.5-14 11-27.4 22.7-40.2 35.1-7.4 46-26.9 185.1-20.9 342.8z"/><linearGradient id="SVGID_00000067926685896972759860000001280424653268846477_" gradientUnits="userSpaceOnUse" x1="936.192" y1="-160.447" x2="965.632" y2="801.281" gradientTransform="matrix(1 0 0 -1 0 1080)"><stop offset="0" style="stop-color:#000"/><stop offset="1" style="stop-color:#000;stop-opacity:0"/></linearGradient><path style="fill:url(#SVGID_00000067926685896972759860000001280424653268846477_)" d="M892.1 184.5c7.8 49.8 26.2 185.8 20.4 339.2-1.6 43-5 84.1-10.1 123.2 64.1 2 105 3.8 115.5 4.3.5 0 1 0 1.4.1.4-2 .8-3.9 1.3-5.9 17-80.2 16.2-151.3 9.9-206.1-20.2-98.5-69.5-186.6-138.4-254.8z"/><linearGradient id="SVGID_00000085210149672698990580000009911493378235440803_" gradientUnits="userSpaceOnUse" x1="203.03" y1="367.99" x2="231.7" y2="367.99" gradientTransform="matrix(1 0 0 -1 0 1080)"><stop offset="0" style="stop-color:#000"/><stop offset="1" style="stop-color:#000;stop-opacity:0"/></linearGradient><path style="fill:url(#SVGID_00000085210149672698990580000009911493378235440803_)" d="m203 671.9 13.1 86.8 15.6-6.6-10.7-86.8z"/><linearGradient id="SVGID_00000004546736743268853120000004675439391029630132_" gradientUnits="userSpaceOnUse" x1="70.66" y1="409.675" x2="213.44" y2="409.675" gradientTransform="matrix(1 0 0 -1 0 1080)"><stop offset="0" style="stop-color:#000"/><stop offset="1" style="stop-color:#000;stop-opacity:0"/></linearGradient><path style="fill:url(#SVGID_00000004546736743268853120000004675439391029630132_)" d="M180.2 665.5c-66.5 1.8-100.2 6.4-103.6 6.9l-5.9 3.5c15.1-1.8 53.1-5.5 110.1-6.3h3.2c5.5-.1 11.2-.1 17.1-.1l12.4-4.5c-10.7.1-20.7.3-30.1.5-1.1-.1-2.2-.1-3.2 0z"/><linearGradient id="SVGID_00000031924237197217468670000000508946350422807231_" gradientUnits="userSpaceOnUse" x1="889.915" y1="-159.03" x2="919.355" y2="802.697" gradientTransform="matrix(1 0 0 -1 0 1080)"><stop offset="0" style="stop-color:#000"/><stop offset="1" style="stop-color:#000;stop-opacity:0"/></linearGradient><path style="fill:url(#SVGID_00000031924237197217468670000000508946350422807231_)" d="M1014.6 679.5c-.5-.1-1.1-.1-1.8-.2-11.3-1.5-51.1-5.9-114.1-6.8-8.2 54-19.9 104-34.9 149.5-19.1 57.8-43.6 108.3-73.4 151.3 93.4-54.2 167.8-137.7 210.4-237.9 2.6-9.3 5.2-19 7.6-29l1.5-6.3c1.4-5.9 2.7-11.8 4-17.9.3-.9.5-1.8.7-2.7z"/><linearGradient id="SVGID_00000031185900876240892800000012086787194029430164_" gradientUnits="userSpaceOnUse" x1="523" y1="-147.798" x2="552.441" y2="813.929" gradientTransform="matrix(1 0 0 -1 0 1080)"><stop offset="0" style="stop-color:#000"/><stop offset="1" style="stop-color:#000;stop-opacity:0"/></linearGradient><path style="fill:url(#SVGID_00000031185900876240892800000012086787194029430164_)" d="m880 672.4-13.5 90h-653l-13.5-90c-5.3 0-10.5 0-15.5.1C201 778.7 233.8 889.3 296 977c72.2 40.5 155.5 63.7 244 63.7s171.8-23.1 244-63.7c62.2-87.7 95-198.2 111.5-304.5-5-.1-10.2-.1-15.5-.1z"/><linearGradient id="SVGID_00000134970092175478275680000016436800812691587994_" gradientUnits="userSpaceOnUse" x1="131.47" y1="321.191" x2="131.47" y2="543.253" gradientTransform="matrix(1 0 0 -1 0 1080)"><stop offset="0" style="stop-color:#000"/><stop offset="1" style="stop-color:#000;stop-opacity:0"/></linearGradient><path style="fill:url(#SVGID_00000134970092175478275680000016436800812691587994_)" d="M223.3 658.5c-.7 0-1.4 0-2.1.1-14.1.4-26.9.9-38.6 1.3-1.1 0-2.1.1-3.2.1-81 3.2-104.6 6.6-105 6.7l-.7.1-14.8-12.3-.8-.7-.1-.5c0-.2-.1-.4-.1-.6-.4-1.7-.8-3.5-1.1-5.2-.3-1.3-.5-2.5-.8-3.8a642.1 642.1 0 0 1-12.7-166.5c-2.6 20.6-3.9 41.5-3.9 62.8 0 60.2 10.7 117.9 30.2 171.4-.4-1.6-.8-3.3-1.2-5-2.2-8.9-4.2-18-6.2-27.4 0-.2-.1-.3-.1-.5l-.2-1.1 1.2-.7 12.7-7.4c.4-.1 34.1-5 103.9-6.9 1.1 0 2.1 0 3.2-.1 11.9-.3 24.9-.5 38.8-.6H223.5l-.2-3.2z"/><linearGradient id="SVGID_00000171697464523592321190000009280768967743977643_" gradientUnits="userSpaceOnUse" x1="948.51" y1="321.191" x2="948.51" y2="543.253" gradientTransform="matrix(1 0 0 -1 0 1080)"><stop offset="0" style="stop-color:#000"/><stop offset="1" style="stop-color:#000;stop-opacity:0"/></linearGradient><path style="fill:url(#SVGID_00000171697464523592321190000009280768967743977643_)" d="M1017.8 679.1c-2 9.4-4.1 18.5-6.2 27.4-.4 1.7-.8 3.3-1.2 5 19.6-53.5 30.2-111.2 30.2-171.4 0-21.3-1.3-42.2-3.9-62.8 2.6 47.8.2 104.4-12.6 166.4-.3 1.3-.5 2.5-.8 3.8-.4 1.7-.7 3.4-1.1 5.2 0 .2-.1.4-.1.6l-.1.5-.8.7-14.8 12.3-.7-.1c-.4-.1-24-3.5-105-6.7-1.1 0-2.1-.1-3.2-.1-11.6-.4-24.4-.9-38.4-1.3-.7 0-1.5 0-2.2-.1l-.4 3.2h1.9c13.9.1 26.8.3 38.7.6 1.1 0 2.2 0 3.2.1 69.8 1.9 103.5 6.9 104 6.9l.5.2 12.2 7.2 1.2.7-.2 1.1c-.1.2-.1.4-.2.6z"/><path d="M1033.4 438.8c-2.2-10.6-4.7-21-7.5-31.4-24-87.8-71.2-166.1-134.6-227.9-1.2-1.2-2.4-2.4-3.7-3.6-8.2-7.9-16.8-15.5-25.5-22.8-4-3.3-8.1-6.6-12.2-9.9-46.9-36.7-100.5-65.3-158.6-83.6-5-1.6-10-3.1-15-4.5-20.7-5.8-41.8-10.3-63.5-13.5-1-.2-2-.3-3-.4-22.8-3.2-46.1-4.9-69.8-4.9s-47 1.7-69.8 4.9c-1 .1-2 .3-3 .4-21.6 3.2-42.8 7.7-63.5 13.5-5 1.4-10 2.9-15 4.5-58.1 18.3-111.7 47-158.7 83.7-4.1 3.2-8.2 6.5-12.2 9.9-8.8 7.3-17.3 14.9-25.5 22.8-1.2 1.2-2.4 2.4-3.7 3.6-63.3 61.7-110.5 140-134.5 227.8-2.8 10.3-5.4 20.8-7.5 31.4-6.7 32.7-10.2 66.6-10.2 101.2 0 69.7 14.2 136.1 39.9 196.5 2.9 6.8 6 13.6 9.2 20.2 44.9 93.8 118 171.6 208.2 222.4 2.1 1.2 4.3 2.4 6.4 3.6 71.4 38.8 153.1 60.9 239.9 60.9s168.6-22.1 239.9-60.9c2.2-1.2 4.3-2.4 6.4-3.6 90.2-50.8 163.3-128.6 208.2-222.3 3.2-6.7 6.3-13.4 9.2-20.3 25.7-60.4 39.9-126.8 39.9-196.5.1-34.7-3.4-68.5-10.2-101.2zm-2.9.5c6.3 54.8 7.1 125.9-9.9 206.1-.4 2-.8 3.9-1.3 5.9-.4 0-.9 0-1.4-.1-10.5-.5-51.4-2.3-115.5-4.3 5.1-39.1 8.5-80.2 10.1-123.2 5.8-153.5-12.5-289.5-20.4-339.2 68.9 68.2 118.2 156.3 138.4 254.8zM612.8 44.7c26.5 3.9 52.3 9.8 77.3 17.7 6 1.9 12 3.9 18 6.1 44.9 16 86.9 38.3 124.9 65.8 5.2 3.7 10.3 7.6 15.3 11.5 14 11 27.4 22.7 40.2 35.1 7.4 45.9 26.9 185.1 21 342.7-1.5 38.8-4.6 80.5-10.2 123.2-71-2.1-169.7-4.4-286.4-5.1l-.1-597zm-142.6-.5c22.8-3.2 46.1-4.9 69.8-4.9s47 1.7 69.8 4.9v597.5c-22.1-.1-44.9-.2-68.3-.2h-3c-23.4 0-46.1.1-68.3.2V44.2zm0 600.6c22.1-.1 44.9-.2 68.3-.2h3c23.4 0 46.1.1 68.3.2h3c116.5.7 215 2.9 286 5.1 1.1 0 2.1.1 3.2.1 62 1.9 102.4 3.7 114.6 4.2l-11.2 9.3c-4.4-.6-30.5-3.7-104.4-6.6-1 0-2.1-.1-3.2-.1-60-2.3-150.6-4.4-285-5h-3c-21.6-.1-44.3-.1-68.3-.1h-3c-23.9 0-46.6 0-68.3.1h-3c-134.4.6-225 2.7-285 5-1.1 0-2.1.1-3.2.1-73.8 2.9-100 6-104.4 6.6l-11.2-9.3c12.2-.6 52.6-2.4 114.6-4.2 1.1 0 2.1-.1 3.2-.1 71-2.1 169.4-4.4 286-5.1h3zM877 671.9l-13 86.8-15.7-6.6 10.7-86.7 18 6.5zm-10.5-7c10.7.1 20.7.3 30.1.5 1.1 0 2.2 0 3.2.1 66.5 1.8 100.2 6.4 103.6 6.9l11.2 5.5c-15.1-1.8-58.4-7.5-115.4-8.3H896c-5.5-.1-11.2-.1-17-.1l-12.5-4.6zm-645.5.4 10.7 86.7-15.6 6.6-13-86.8 17.9-6.5zm-19.9 4.1c-5.9 0-11.5 0-17.1.1h-3.2c-57 .8-95 4.5-110.1 6.3l5.9-3.5c3.4-.5 37.2-5.1 103.6-6.9 1.1 0 2.1 0 3.2-.1 9.4-.2 19.4-.4 30.1-.5l-12.4 4.6zm655.1-5.9-10.9 88H234.7l-11-88.8-.3-4.2c58-1.7 137.1-3.2 243.7-3.6h3c22.1-.1 45.3-.1 69.8-.1s47.7 0 69.8.1h3c106.6.5 185.6 1.9 243.6 3.6l-.1 5zm-622.6 91h612.6l11.3 4.8H222.4l11.2-4.8zm-42.1-573.6c12.8-12.4 26.2-24.1 40.2-35.1 5-3.9 10.1-7.8 15.3-11.5 38-27.5 80-49.8 124.9-65.9 6-2.1 12-4.2 18-6.1 25-7.9 50.8-13.8 77.3-17.7v597.1c-116.7.7-215.4 2.9-286.4 5.1-5.6-42.7-8.8-84.4-10.2-123.2-6-157.6 13.5-296.7 20.9-342.7zm-142 258.5c20.2-98.5 69.4-186.6 138.4-254.9-7.8 49.8-26.2 185.8-20.4 339.2 1.6 43 5 84.1 10.1 123.2-64.1 2-105 3.8-115.5 4.3-.5 0-1 0-1.4.1-.4-2-.8-3.9-1.3-5.9-17-80.2-16.2-151.3-9.9-206zM39.4 540c0-21.2 1.3-42.2 3.9-62.8-2.6 47.8-.3 104.4 12.6 166.5.3 1.3.5 2.5.8 3.8.4 1.7.7 3.4 1.1 5.2 0 .2.1.4.1.6l.1.5.8.7 14.8 12.3.7-.1c.4-.1 24-3.5 105-6.7 1.1 0 2.1-.1 3.2-.1 11.4-.4 24-.9 37.8-1.3l.2 3.2c-13.5.1-26.1.3-37.7.6-1.1 0-2.2 0-3.2.1-69.8 1.9-103.6 6.9-103.9 6.9L63 676.8l-1.2.7.2 1.1c0 .2.1.3.1.5 2 9.4 4.1 18.5 6.2 27.4.4 1.7.8 3.3 1.2 5C50 657.9 39.4 600.2 39.4 540zm39.7 195.5c-2.6-9.3-5.2-18.9-7.6-29l-1.5-6.3c-1.4-5.9-2.7-11.8-4-17.9l-.6-2.7c.5-.1 1.1-.1 1.8-.2 11.3-1.5 51.1-5.9 114.1-6.8 8.2 54 19.9 104 34.9 149.5 19.1 57.8 43.6 108.3 73.4 151.3-93.5-54.2-167.8-137.8-210.5-237.9zM784 977c-72.2 40.5-155.5 63.7-244 63.7s-171.8-23.1-244-63.7c-62.1-87.7-95-198.2-111.4-304.5 5 0 10.2-.1 15.5-.1l13.5 90h653l13.5-90c5.3 0 10.5 0 15.5.1C879 778.7 846.2 889.3 784 977zm224.5-270.5c-2.4 10-5 19.7-7.6 29-42.6 100.2-117 183.7-210.4 237.9 29.8-43 54.3-93.6 73.4-151.3 15-45.5 26.7-95.5 34.9-149.5 63 .8 102.8 5.3 114.1 6.8.7.1 1.3.2 1.8.2l-.6 2.7c-1.3 6.1-2.7 12.1-4 17.9-.6 2.1-1.1 4.2-1.6 6.3zm3.1 0c2.2-8.9 4.2-18 6.2-27.4 0-.2.1-.3.1-.5l.2-1.1-1.2-.7-12.2-7.2-.5-.2c-.4-.1-34.1-5-104-6.9-1 0-2.2 0-3.2-.1-11.6-.3-24.2-.5-37.7-.6l.2-3.2c13.8.4 26.4.8 37.9 1.3 1.1 0 2.1.1 3.2.1 81 3.2 104.6 6.6 105 6.7l.7.1 14.8-12.3.8-.7.1-.5c0-.2.1-.4.1-.6.4-1.7.8-3.5 1.1-5.2.3-1.3.5-2.5.8-3.8 12.9-62.1 15.2-118.7 12.6-166.5 2.6 20.6 3.9 41.5 3.9 62.8 0 60.2-10.7 117.9-30.2 171.4.5-1.6.9-3.3 1.3-4.9z"/><linearGradient id="SVGID_00000023986444892222341490000014915821569277582008_" gradientUnits="userSpaceOnUse" x1="223.35" y1="376.875" x2="856.8" y2="376.875" gradientTransform="matrix(1 0 0 -1 0 1080)"><stop offset="0" style="stop-color:#000"/><stop offset="1" style="stop-color:#000;stop-opacity:0"/></linearGradient><path style="fill:url(#SVGID_00000023986444892222341490000014915821569277582008_)" d="M612.8 654.9h-3c-22.1-.1-45.3-.1-69.8-.1s-47.7 0-69.8.1h-3c-106.7.5-185.8 1.9-243.8 3.6l.3 3.2 11.1 89.8h610.6l11.1-89.8.4-3.2c-58.2-1.7-137.3-3.2-244.1-3.6z"/><path d="M612.8 654.9h-3c-22.1-.1-45.3-.1-69.8-.1s-47.7 0-69.8.1h-3c-106.7.5-185.8 1.9-243.8 3.6l.3 3.2 11.1 89.8h610.6l11.1-89.8.4-3.2c-58.2-1.7-137.3-3.2-244.1-3.6z" style="fill:#24f49f;enable-background:new"/></svg>
